<mxfile host="app.diagrams.net" modified="2024-06-11T21:43:35.705Z" agent="Mozilla/5.0 (Windows NT 10.0; Win64; x64) AppleWebKit/537.36 (KHTML, like Gecko) Chrome/125.0.0.0 Safari/537.36" version="24.5.2" etag="UAkzFKP0PPVGtZb2oyiR" type="github">
  <diagram name="Page-1" id="80woVdKqGiGmp1aJMVEQ">
    <mxGraphModel>
      <root>
        <mxCell id="0" />
        <mxCell id="1" parent="0" />
      </root>
    </mxGraphModel>
  </diagram>
</mxfile>
